<svg width="1909" height="962" viewBox="0 0 1909 962" fill="none" xmlns="http://www.w3.org/2000/svg">
<g opacity="0.2">
<path d="M332.183 189.925L306.562 165.822" stroke="#B76C4E" stroke-width="5" stroke-miterlimit="10" stroke-linecap="round" stroke-linejoin="round"/>
<path d="M307.237 190.768L331.34 165.148" stroke="#B76C4E" stroke-width="5" stroke-miterlimit="10" stroke-linecap="round" stroke-linejoin="round"/>
<path d="M1286.23 189.925L1260.61 165.822" stroke="#B76C4E" stroke-width="5" stroke-miterlimit="10" stroke-linecap="round" stroke-linejoin="round"/>
<path d="M1261.29 190.768L1285.39 165.148" stroke="#B76C4E" stroke-width="5" stroke-miterlimit="10" stroke-linecap="round" stroke-linejoin="round"/>
<path d="M361.678 559.899L336.058 535.796" stroke="#B76C4E" stroke-width="5" stroke-miterlimit="10" stroke-linecap="round" stroke-linejoin="round"/>
<path d="M336.9 560.573L361.003 534.953" stroke="#B76C4E" stroke-width="5" stroke-miterlimit="10" stroke-linecap="round" stroke-linejoin="round"/>
<path d="M1315.73 559.899L1290.11 535.796" stroke="#B76C4E" stroke-width="5" stroke-miterlimit="10" stroke-linecap="round" stroke-linejoin="round"/>
<path d="M1290.95 560.573L1315.05 534.953" stroke="#B76C4E" stroke-width="5" stroke-miterlimit="10" stroke-linecap="round" stroke-linejoin="round"/>
<path d="M48.8469 766.545L23.2268 742.442" stroke="#B76C4E" stroke-width="5" stroke-miterlimit="10" stroke-linecap="round" stroke-linejoin="round"/>
<path d="M24.0688 767.219L48.1719 741.599" stroke="#B76C4E" stroke-width="5" stroke-miterlimit="10" stroke-linecap="round" stroke-linejoin="round"/>
<path d="M1002.89 766.545L977.275 742.442" stroke="#B76C4E" stroke-width="5" stroke-miterlimit="10" stroke-linecap="round" stroke-linejoin="round"/>
<path d="M978.117 767.219L1002.22 741.599" stroke="#B76C4E" stroke-width="5" stroke-miterlimit="10" stroke-linecap="round" stroke-linejoin="round"/>
<path d="M37.7201 154.866L11.9315 130.595" stroke="#B76C4E" stroke-width="5" stroke-miterlimit="10" stroke-linecap="round" stroke-linejoin="round"/>
<path d="M12.7735 155.541L36.8766 129.921" stroke="#B76C4E" stroke-width="5" stroke-miterlimit="10" stroke-linecap="round" stroke-linejoin="round"/>
<path d="M991.768 154.866L965.98 130.595" stroke="#B76C4E" stroke-width="5" stroke-miterlimit="10" stroke-linecap="round" stroke-linejoin="round"/>
<path d="M966.822 155.541L990.925 129.921" stroke="#B76C4E" stroke-width="5" stroke-miterlimit="10" stroke-linecap="round" stroke-linejoin="round"/>
<path d="M951.952 189.42L926.332 165.317" stroke="#B76C4E" stroke-width="5" stroke-miterlimit="10" stroke-linecap="round" stroke-linejoin="round"/>
<path d="M927.007 190.094L951.11 164.474" stroke="#B76C4E" stroke-width="5" stroke-miterlimit="10" stroke-linecap="round" stroke-linejoin="round"/>
<path d="M1906 189.42L1880.38 165.317" stroke="#B76C4E" stroke-width="5" stroke-miterlimit="10" stroke-linecap="round" stroke-linejoin="round"/>
<path d="M1881.06 190.094L1905.16 164.474" stroke="#B76C4E" stroke-width="5" stroke-miterlimit="10" stroke-linecap="round" stroke-linejoin="round"/>
<path d="M648.724 320.554L622.935 296.451" stroke="#B76C4E" stroke-width="5" stroke-miterlimit="10" stroke-linecap="round" stroke-linejoin="round"/>
<path d="M623.777 321.228L647.88 295.608" stroke="#B76C4E" stroke-width="5" stroke-miterlimit="10" stroke-linecap="round" stroke-linejoin="round"/>
<path d="M1602.77 320.554L1576.98 296.451" stroke="#B76C4E" stroke-width="5" stroke-miterlimit="10" stroke-linecap="round" stroke-linejoin="round"/>
<path d="M1577.83 321.228L1601.93 295.608" stroke="#B76C4E" stroke-width="5" stroke-miterlimit="10" stroke-linecap="round" stroke-linejoin="round"/>
<path d="M773.961 606.757L748.341 582.654" stroke="#B76C4E" stroke-width="5" stroke-miterlimit="10" stroke-linecap="round" stroke-linejoin="round"/>
<path d="M749.183 607.6L773.286 581.811" stroke="#B76C4E" stroke-width="5" stroke-miterlimit="10" stroke-linecap="round" stroke-linejoin="round"/>
<path d="M1728.01 606.757L1702.39 582.654" stroke="#B76C4E" stroke-width="5" stroke-miterlimit="10" stroke-linecap="round" stroke-linejoin="round"/>
<path d="M1703.23 607.6L1727.33 581.811" stroke="#B76C4E" stroke-width="5" stroke-miterlimit="10" stroke-linecap="round" stroke-linejoin="round"/>
<path d="M754.07 839.866L728.281 815.763" stroke="#B76C4E" stroke-width="5" stroke-miterlimit="10" stroke-linecap="round" stroke-linejoin="round"/>
<path d="M729.123 840.709L753.227 814.92" stroke="#B76C4E" stroke-width="5" stroke-miterlimit="10" stroke-linecap="round" stroke-linejoin="round"/>
<path d="M1708.12 839.866L1682.33 815.763" stroke="#B76C4E" stroke-width="5" stroke-miterlimit="10" stroke-linecap="round" stroke-linejoin="round"/>
<path d="M1683.17 840.709L1707.28 814.92" stroke="#B76C4E" stroke-width="5" stroke-miterlimit="10" stroke-linecap="round" stroke-linejoin="round"/>
<path d="M523.082 228.381L505.431 198.194L488.114 228.381L470.63 258.735H505.598H540.566L523.082 228.381Z" stroke="#B76C4E" stroke-width="5" stroke-miterlimit="10" stroke-linecap="round" stroke-linejoin="round"/>
<path d="M1477.13 228.381L1459.48 198.194L1442.16 228.381L1424.68 258.735H1459.65H1494.61L1477.13 228.381Z" stroke="#B76C4E" stroke-width="5" stroke-miterlimit="10" stroke-linecap="round" stroke-linejoin="round"/>
<path d="M464.586 602.588L447.061 571.88L429.702 602.588L412.176 633.465H447.227H482.112L464.586 602.588Z" stroke="#B76C4E" stroke-width="5" stroke-miterlimit="10" stroke-linecap="round" stroke-linejoin="round"/>
<path d="M1418.63 602.588L1401.11 571.88L1383.75 602.588L1366.22 633.465H1401.28H1436.16L1418.63 602.588Z" stroke="#B76C4E" stroke-width="5" stroke-miterlimit="10" stroke-linecap="round" stroke-linejoin="round"/>
<path d="M667.911 717.493L650.166 686.7L632.422 717.493L614.677 748.285H650.166H685.656L667.911 717.493Z" stroke="#B76C4E" stroke-width="5" stroke-miterlimit="10" stroke-linecap="round" stroke-linejoin="round"/>
<path d="M1621.96 717.493L1604.21 686.7L1586.47 717.493L1568.73 748.285H1604.21H1639.7L1621.96 717.493Z" stroke="#B76C4E" stroke-width="5" stroke-miterlimit="10" stroke-linecap="round" stroke-linejoin="round"/>
<path d="M784.123 482.718L793.169 448.71L759.329 457.924L725.321 466.97L750.115 491.764L775.077 516.558L784.123 482.718Z" stroke="#B76C4E" stroke-width="5" stroke-miterlimit="10" stroke-linecap="round" stroke-linejoin="round"/>
<path d="M1738.17 482.718L1747.22 448.71L1713.38 457.924L1679.37 466.97L1704.16 491.764L1729.12 516.558L1738.17 482.718Z" stroke="#B76C4E" stroke-width="5" stroke-miterlimit="10" stroke-linecap="round" stroke-linejoin="round"/>
<path d="M202.717 86.0673L211.763 52.0594L177.756 61.2734L143.915 70.3198L168.709 95.1137L193.671 119.908L202.717 86.0673Z" stroke="#B76C4E" stroke-width="5" stroke-miterlimit="10" stroke-linecap="round" stroke-linejoin="round"/>
<path d="M1156.77 86.0673L1165.81 52.0594L1131.8 61.2734L1097.96 70.3198L1122.76 95.1137L1147.72 119.908L1156.77 86.0673Z" stroke="#B76C4E" stroke-width="5" stroke-miterlimit="10" stroke-linecap="round" stroke-linejoin="round"/>
<path d="M178.709 823.962L187.756 790.038L153.915 799.229L119.907 808.253L144.869 832.986L169.663 857.886L178.709 823.962Z" stroke="#B76C4E" stroke-width="5" stroke-miterlimit="10" stroke-linecap="round" stroke-linejoin="round"/>
<path d="M1132.76 823.962L1141.8 790.038L1107.96 799.229L1073.96 808.253L1098.92 832.986L1123.71 857.886L1132.76 823.962Z" stroke="#B76C4E" stroke-width="5" stroke-miterlimit="10" stroke-linecap="round" stroke-linejoin="round"/>
<path d="M819.702 124.04L850.579 106.253L819.702 88.6354L788.994 70.8481V106.253V141.828L819.702 124.04Z" stroke="#B76C4E" stroke-width="5" stroke-miterlimit="10" stroke-linecap="round" stroke-linejoin="round"/>
<path d="M1773.75 124.04L1804.63 106.253L1773.75 88.6354L1743.04 70.8481V106.253V141.828L1773.75 124.04Z" stroke="#B76C4E" stroke-width="5" stroke-miterlimit="10" stroke-linecap="round" stroke-linejoin="round"/>
<path d="M177.755 477.937L208.632 460.192L177.755 442.447L147.047 424.702V460.192V495.682L177.755 477.937Z" stroke="#B76C4E" stroke-width="5" stroke-miterlimit="10" stroke-linecap="round" stroke-linejoin="round"/>
<path d="M1131.8 477.937L1162.68 460.192L1131.8 442.447L1101.1 424.702V460.192V495.682L1131.8 477.937Z" stroke="#B76C4E" stroke-width="5" stroke-miterlimit="10" stroke-linecap="round" stroke-linejoin="round"/>
<path d="M583.362 419.483C583.362 434.503 571.243 446.622 556.223 446.622C541.203 446.622 529.084 434.503 529.084 419.483C529.084 404.462 541.203 392.344 556.223 392.344C571.243 392.344 583.362 404.462 583.362 419.483Z" stroke="#B76C4E" stroke-width="5" stroke-miterlimit="10" stroke-linecap="round" stroke-linejoin="round"/>
<path d="M1537.41 419.483C1537.41 434.503 1525.29 446.622 1510.27 446.622C1495.25 446.622 1483.13 434.503 1483.13 419.483C1483.13 404.462 1495.25 392.344 1510.27 392.344C1525.29 392.344 1537.41 404.462 1537.41 419.483Z" stroke="#B76C4E" stroke-width="5" stroke-miterlimit="10" stroke-linecap="round" stroke-linejoin="round"/>
<path d="M447.666 120.429C447.666 135.161 435.547 147.047 420.527 147.047C405.506 147.047 393.387 135.161 393.387 120.429C393.387 105.698 405.506 93.812 420.527 93.812C435.547 93.812 447.666 105.865 447.666 120.429Z" stroke="#B76C4E" stroke-width="5" stroke-miterlimit="10" stroke-linecap="round" stroke-linejoin="round"/>
<path d="M1401.71 120.429C1401.71 135.161 1389.6 147.047 1374.58 147.047C1359.55 147.047 1347.44 135.161 1347.44 120.429C1347.44 105.698 1359.55 93.812 1374.58 93.812C1389.6 93.812 1401.71 105.865 1401.71 120.429Z" stroke="#B76C4E" stroke-width="5" stroke-miterlimit="10" stroke-linecap="round" stroke-linejoin="round"/>
<path d="M464.367 911.642C464.367 926.374 452.481 938.26 437.75 938.26C423.018 938.26 411.132 926.374 411.132 911.642C411.132 896.911 423.018 885.025 437.75 885.025C452.314 885.025 464.367 896.911 464.367 911.642Z" stroke="#B76C4E" stroke-width="5" stroke-miterlimit="10" stroke-linecap="round" stroke-linejoin="round"/>
<path d="M1418.42 911.642C1418.42 926.374 1406.53 938.26 1391.8 938.26C1377.07 938.26 1365.18 926.374 1365.18 911.642C1365.18 896.911 1377.07 885.025 1391.8 885.025C1406.36 885.025 1418.42 896.911 1418.42 911.642Z" stroke="#B76C4E" stroke-width="5" stroke-miterlimit="10" stroke-linecap="round" stroke-linejoin="round"/>
<path d="M536.39 871.456C536.39 857.013 548.276 845.36 563.008 845.36C577.739 845.36 589.625 857.013 589.625 871.456" stroke="#B76C4E" stroke-width="5" stroke-miterlimit="10" stroke-linecap="round" stroke-linejoin="round"/>
<path d="M1490.44 871.456C1490.44 857.013 1502.32 845.36 1517.06 845.36C1531.79 845.36 1543.67 857.013 1543.67 871.456" stroke="#B76C4E" stroke-width="5" stroke-miterlimit="10" stroke-linecap="round" stroke-linejoin="round"/>
<path d="M322.408 460.192C322.408 445.171 334.294 433.052 349.025 433.052C363.757 433.052 375.643 445.171 375.643 460.192" stroke="#B76C4E" stroke-width="5" stroke-miterlimit="10" stroke-linecap="round" stroke-linejoin="round"/>
<path d="M1276.46 460.192C1276.46 445.171 1288.34 433.052 1303.07 433.052C1317.81 433.052 1329.69 445.171 1329.69 460.192" stroke="#B76C4E" stroke-width="5" stroke-miterlimit="10" stroke-linecap="round" stroke-linejoin="round"/>
<path d="M40.5774 242.034C40.5774 227.014 52.5383 214.895 67.1947 214.895C81.8511 214.895 93.812 227.014 93.812 242.034" stroke="#B76C4E" stroke-width="5" stroke-miterlimit="10" stroke-linecap="round" stroke-linejoin="round"/>
<path d="M994.626 242.034C994.626 227.014 1006.59 214.895 1021.24 214.895C1035.9 214.895 1047.86 227.014 1047.86 242.034" stroke="#B76C4E" stroke-width="5" stroke-miterlimit="10" stroke-linecap="round" stroke-linejoin="round"/>
<path d="M715.927 285.874C701.484 285.874 689.832 273.913 689.832 259.257C689.832 244.601 701.484 232.64 715.927 232.64" stroke="#B76C4E" stroke-width="5" stroke-miterlimit="10" stroke-linecap="round" stroke-linejoin="round"/>
<path d="M1669.98 285.874C1655.53 285.874 1643.88 273.913 1643.88 259.257C1643.88 244.601 1655.53 232.64 1669.98 232.64" stroke="#B76C4E" stroke-width="5" stroke-miterlimit="10" stroke-linecap="round" stroke-linejoin="round"/>
<path d="M69.8043 912.164C55.3615 912.164 43.7089 899.969 43.7089 885.025C43.7089 870.082 55.3615 857.886 69.8043 857.886" stroke="#B76C4E" stroke-width="5" stroke-miterlimit="10" stroke-linecap="round" stroke-linejoin="round"/>
<path d="M1023.85 912.164C1009.41 912.164 997.757 899.969 997.757 885.025C997.757 870.082 1009.41 857.886 1023.85 857.886" stroke="#B76C4E" stroke-width="5" stroke-miterlimit="10" stroke-linecap="round" stroke-linejoin="round"/>
<path d="M357.898 58.3223C343.455 58.3223 331.802 46.3614 331.802 31.705C331.802 17.0486 343.455 5.08765 357.898 5.08765" stroke="#B76C4E" stroke-width="5" stroke-miterlimit="10" stroke-linecap="round" stroke-linejoin="round"/>
<path d="M1311.95 58.3223C1297.5 58.3223 1285.85 46.3614 1285.85 31.705C1285.85 17.0486 1297.5 5.08765 1311.95 5.08765" stroke="#B76C4E" stroke-width="5" stroke-miterlimit="10" stroke-linecap="round" stroke-linejoin="round"/>
<path d="M83.3739 629.812C83.3739 644.544 71.4882 656.429 56.7566 656.429C42.025 656.429 30.1392 644.544 30.1392 629.812C30.1392 615.08 42.025 603.195 56.7566 603.195C71.4882 603.195 83.3739 615.08 83.3739 629.812Z" stroke="#B76C4E" stroke-width="5" stroke-miterlimit="10" stroke-linecap="round" stroke-linejoin="round"/>
<path d="M1037.42 629.812C1037.42 644.544 1025.54 656.429 1010.81 656.429C996.073 656.429 984.188 644.544 984.188 629.812C984.188 615.08 996.073 603.195 1010.81 603.195C1025.54 603.195 1037.42 615.08 1037.42 629.812Z" stroke="#B76C4E" stroke-width="5" stroke-miterlimit="10" stroke-linecap="round" stroke-linejoin="round"/>
<path d="M911.121 660.083C911.121 674.814 899.002 686.7 883.981 686.7C868.961 686.7 856.842 674.814 856.842 660.083C856.842 645.351 868.961 633.465 883.981 633.465C899.002 633.465 911.121 645.351 911.121 660.083Z" stroke="#B76C4E" stroke-width="5" stroke-miterlimit="10" stroke-linecap="round" stroke-linejoin="round"/>
<path d="M1865.17 660.083C1865.17 674.814 1853.05 686.7 1838.03 686.7C1823.01 686.7 1810.89 674.814 1810.89 660.083C1810.89 645.351 1823.01 633.465 1838.03 633.465C1853.05 633.465 1865.17 645.351 1865.17 660.083Z" stroke="#B76C4E" stroke-width="5" stroke-miterlimit="10" stroke-linecap="round" stroke-linejoin="round"/>
<path d="M890.244 232.64H837.01V285.874H890.244V232.64Z" stroke="#B76C4E" stroke-width="5" stroke-miterlimit="10" stroke-linecap="round" stroke-linejoin="round"/>
<path d="M1844.29 232.64H1791.06V285.874H1844.29V232.64Z" stroke="#B76C4E" stroke-width="5" stroke-miterlimit="10" stroke-linecap="round" stroke-linejoin="round"/>
<path d="M286.918 258.735H233.684V313.014H286.918V258.735Z" stroke="#B76C4E" stroke-width="5" stroke-miterlimit="10" stroke-linecap="round" stroke-linejoin="round"/>
<path d="M1240.97 258.735H1187.73V313.014H1240.97V258.735Z" stroke="#B76C4E" stroke-width="5" stroke-miterlimit="10" stroke-linecap="round" stroke-linejoin="round"/>
<path d="M283.787 600.063H230.552V653.298H283.787V600.063Z" stroke="#B76C4E" stroke-width="5" stroke-miterlimit="10" stroke-linecap="round" stroke-linejoin="round"/>
<path d="M1237.84 600.063H1184.6V653.298H1237.84V600.063Z" stroke="#B76C4E" stroke-width="5" stroke-miterlimit="10" stroke-linecap="round" stroke-linejoin="round"/>
<path d="M890.244 857.886H837.01V912.164H890.244V857.886Z" stroke="#B76C4E" stroke-width="5" stroke-miterlimit="10" stroke-linecap="round" stroke-linejoin="round"/>
<path d="M1844.29 857.886H1791.06V912.164H1844.29V857.886Z" stroke="#B76C4E" stroke-width="5" stroke-miterlimit="10" stroke-linecap="round" stroke-linejoin="round"/>
<path d="M668.955 5.08765H615.72V58.3223H668.955V5.08765Z" stroke="#B76C4E" stroke-width="5" stroke-miterlimit="10" stroke-linecap="round" stroke-linejoin="round"/>
<path d="M1623 5.08765H1569.77V58.3223H1623V5.08765Z" stroke="#B76C4E" stroke-width="5" stroke-miterlimit="10" stroke-linecap="round" stroke-linejoin="round"/>
<path d="M538.66 547.763C527.03 547.763 529.052 527.031 514.219 527.031" stroke="#B76C4E" stroke-width="5" stroke-miterlimit="10" stroke-linecap="round" stroke-linejoin="round"/>
<path d="M587.71 547.763C576.079 547.763 578.102 527.031 563.269 527.031" stroke="#B76C4E" stroke-width="5" stroke-miterlimit="10" stroke-linecap="round" stroke-linejoin="round"/>
<path d="M538.66 547.763C550.29 547.763 548.268 527.031 563.1 527.031" stroke="#B76C4E" stroke-width="5" stroke-miterlimit="10" stroke-linecap="round" stroke-linejoin="round"/>
<path d="M587.709 547.763C599.34 547.763 597.317 527.031 612.15 527.031" stroke="#B76C4E" stroke-width="5" stroke-miterlimit="10" stroke-linecap="round" stroke-linejoin="round"/>
<path d="M538.66 547.763C527.03 547.763 529.052 527.031 514.219 527.031" stroke="#B76C4E" stroke-width="5" stroke-miterlimit="10" stroke-linecap="round" stroke-linejoin="round"/>
<path d="M587.71 547.763C576.079 547.763 578.102 527.031 563.269 527.031" stroke="#B76C4E" stroke-width="5" stroke-miterlimit="10" stroke-linecap="round" stroke-linejoin="round"/>
<path d="M538.66 547.763C550.29 547.763 548.268 527.031 563.1 527.031" stroke="#B76C4E" stroke-width="5" stroke-miterlimit="10" stroke-linecap="round" stroke-linejoin="round"/>
<path d="M587.709 547.763C599.34 547.763 597.317 527.031 612.15 527.031" stroke="#B76C4E" stroke-width="5" stroke-miterlimit="10" stroke-linecap="round" stroke-linejoin="round"/>
<path d="M1492.71 547.763C1481.08 547.763 1483.1 527.031 1468.27 527.031" stroke="#B76C4E" stroke-width="5" stroke-miterlimit="10" stroke-linecap="round" stroke-linejoin="round"/>
<path d="M1541.76 547.763C1530.13 547.763 1532.15 527.031 1517.32 527.031" stroke="#B76C4E" stroke-width="5" stroke-miterlimit="10" stroke-linecap="round" stroke-linejoin="round"/>
<path d="M1492.71 547.763C1504.34 547.763 1502.32 527.031 1517.15 527.031" stroke="#B76C4E" stroke-width="5" stroke-miterlimit="10" stroke-linecap="round" stroke-linejoin="round"/>
<path d="M1541.76 547.763C1553.39 547.763 1551.37 527.031 1566.2 527.031" stroke="#B76C4E" stroke-width="5" stroke-miterlimit="10" stroke-linecap="round" stroke-linejoin="round"/>
<path d="M678.223 932.57C666.593 932.57 668.616 911.838 653.783 911.838" stroke="#B76C4E" stroke-width="5" stroke-miterlimit="10" stroke-linecap="round" stroke-linejoin="round"/>
<path d="M727.272 932.57C715.642 932.57 717.665 911.838 702.832 911.838" stroke="#B76C4E" stroke-width="5" stroke-miterlimit="10" stroke-linecap="round" stroke-linejoin="round"/>
<path d="M678.223 932.57C689.853 932.57 687.83 911.838 702.663 911.838" stroke="#B76C4E" stroke-width="5" stroke-miterlimit="10" stroke-linecap="round" stroke-linejoin="round"/>
<path d="M727.272 932.57C738.902 932.57 736.88 911.838 751.712 911.838" stroke="#B76C4E" stroke-width="5" stroke-miterlimit="10" stroke-linecap="round" stroke-linejoin="round"/>
<path d="M1632.27 932.57C1620.64 932.57 1622.66 911.838 1607.83 911.838" stroke="#B76C4E" stroke-width="5" stroke-miterlimit="10" stroke-linecap="round" stroke-linejoin="round"/>
<path d="M1681.32 932.57C1669.69 932.57 1671.71 911.838 1656.88 911.838" stroke="#B76C4E" stroke-width="5" stroke-miterlimit="10" stroke-linecap="round" stroke-linejoin="round"/>
<path d="M1632.27 932.57C1643.9 932.57 1641.88 911.838 1656.71 911.838" stroke="#B76C4E" stroke-width="5" stroke-miterlimit="10" stroke-linecap="round" stroke-linejoin="round"/>
<path d="M1681.32 932.57C1692.95 932.57 1690.93 911.838 1705.76 911.838" stroke="#B76C4E" stroke-width="5" stroke-miterlimit="10" stroke-linecap="round" stroke-linejoin="round"/>
<path d="M745.138 377.862C733.508 377.862 735.53 357.13 720.698 357.13" stroke="#B76C4E" stroke-width="5" stroke-miterlimit="10" stroke-linecap="round" stroke-linejoin="round"/>
<path d="M794.018 377.862C782.388 377.862 784.41 357.13 769.578 357.13" stroke="#B76C4E" stroke-width="5" stroke-miterlimit="10" stroke-linecap="round" stroke-linejoin="round"/>
<path d="M745.138 377.862C756.768 377.862 754.745 357.13 769.578 357.13" stroke="#B76C4E" stroke-width="5" stroke-miterlimit="10" stroke-linecap="round" stroke-linejoin="round"/>
<path d="M794.018 377.862C805.648 377.862 803.625 357.13 818.458 357.13" stroke="#B76C4E" stroke-width="5" stroke-miterlimit="10" stroke-linecap="round" stroke-linejoin="round"/>
<path d="M1699.19 377.862C1687.56 377.862 1689.58 357.13 1674.75 357.13" stroke="#B76C4E" stroke-width="5" stroke-miterlimit="10" stroke-linecap="round" stroke-linejoin="round"/>
<path d="M1748.07 377.862C1736.44 377.862 1738.46 357.13 1723.63 357.13" stroke="#B76C4E" stroke-width="5" stroke-miterlimit="10" stroke-linecap="round" stroke-linejoin="round"/>
<path d="M1699.19 377.862C1710.82 377.862 1708.79 357.13 1723.63 357.13" stroke="#B76C4E" stroke-width="5" stroke-miterlimit="10" stroke-linecap="round" stroke-linejoin="round"/>
<path d="M1748.07 377.862C1759.7 377.862 1757.67 357.13 1772.51 357.13" stroke="#B76C4E" stroke-width="5" stroke-miterlimit="10" stroke-linecap="round" stroke-linejoin="round"/>
<path d="M63.6782 352.916C52.048 352.916 54.0706 332.184 39.238 332.184" stroke="#B76C4E" stroke-width="5" stroke-miterlimit="10" stroke-linecap="round" stroke-linejoin="round"/>
<path d="M112.558 352.916C100.928 352.916 102.95 332.184 88.1177 332.184" stroke="#B76C4E" stroke-width="5" stroke-miterlimit="10" stroke-linecap="round" stroke-linejoin="round"/>
<path d="M63.6777 352.916C75.3078 352.916 73.2852 332.184 88.1179 332.184" stroke="#B76C4E" stroke-width="5" stroke-miterlimit="10" stroke-linecap="round" stroke-linejoin="round"/>
<path d="M112.558 352.916C124.188 352.916 122.165 332.184 136.998 332.184" stroke="#B76C4E" stroke-width="5" stroke-miterlimit="10" stroke-linecap="round" stroke-linejoin="round"/>
<path d="M1017.73 352.916C1006.1 352.916 1008.12 332.184 993.287 332.184" stroke="#B76C4E" stroke-width="5" stroke-miterlimit="10" stroke-linecap="round" stroke-linejoin="round"/>
<path d="M1066.61 352.916C1054.98 352.916 1057 332.184 1042.17 332.184" stroke="#B76C4E" stroke-width="5" stroke-miterlimit="10" stroke-linecap="round" stroke-linejoin="round"/>
<path d="M1017.73 352.916C1029.36 352.916 1027.33 332.184 1042.17 332.184" stroke="#B76C4E" stroke-width="5" stroke-miterlimit="10" stroke-linecap="round" stroke-linejoin="round"/>
<path d="M1066.61 352.916C1078.24 352.916 1076.21 332.184 1091.05 332.184" stroke="#B76C4E" stroke-width="5" stroke-miterlimit="10" stroke-linecap="round" stroke-linejoin="round"/>
<path d="M542.705 76.3206C542.705 87.9507 521.973 85.9281 521.973 100.761" stroke="#B76C4E" stroke-width="5" stroke-miterlimit="10" stroke-linecap="round" stroke-linejoin="round"/>
<path d="M542.705 27.4402C542.705 39.0703 521.973 37.0477 521.973 51.8804" stroke="#B76C4E" stroke-width="5" stroke-miterlimit="10" stroke-linecap="round" stroke-linejoin="round"/>
<path d="M542.705 76.3206C542.705 64.6904 521.973 66.713 521.973 51.8804" stroke="#B76C4E" stroke-width="5" stroke-miterlimit="10" stroke-linecap="round" stroke-linejoin="round"/>
<path d="M542.705 27.4402C542.705 15.81 521.973 17.8327 521.973 3" stroke="#B76C4E" stroke-width="5" stroke-miterlimit="10" stroke-linecap="round" stroke-linejoin="round"/>
<path d="M1496.75 76.3206C1496.75 87.9507 1476.02 85.9281 1476.02 100.761" stroke="#B76C4E" stroke-width="5" stroke-miterlimit="10" stroke-linecap="round" stroke-linejoin="round"/>
<path d="M1496.75 27.4402C1496.75 39.0703 1476.02 37.0477 1476.02 51.8804" stroke="#B76C4E" stroke-width="5" stroke-miterlimit="10" stroke-linecap="round" stroke-linejoin="round"/>
<path d="M1496.75 76.3206C1496.75 64.6904 1476.02 66.713 1476.02 51.8804" stroke="#B76C4E" stroke-width="5" stroke-miterlimit="10" stroke-linecap="round" stroke-linejoin="round"/>
<path d="M1496.75 27.4402C1496.75 15.81 1476.02 17.8327 1476.02 3" stroke="#B76C4E" stroke-width="5" stroke-miterlimit="10" stroke-linecap="round" stroke-linejoin="round"/>
<path d="M392.524 332.689C392.524 344.32 371.792 342.297 371.792 357.13" stroke="#B76C4E" stroke-width="5" stroke-miterlimit="10" stroke-linecap="round" stroke-linejoin="round"/>
<path d="M392.524 283.641C392.524 295.271 371.792 293.248 371.792 308.081" stroke="#B76C4E" stroke-width="5" stroke-miterlimit="10" stroke-linecap="round" stroke-linejoin="round"/>
<path d="M392.524 332.69C392.524 321.059 371.792 323.082 371.792 308.249" stroke="#B76C4E" stroke-width="5" stroke-miterlimit="10" stroke-linecap="round" stroke-linejoin="round"/>
<path d="M392.524 283.641C392.524 272.01 371.792 274.033 371.792 259.2" stroke="#B76C4E" stroke-width="5" stroke-miterlimit="10" stroke-linecap="round" stroke-linejoin="round"/>
<path d="M1346.57 332.689C1346.57 344.32 1325.84 342.297 1325.84 357.13" stroke="#B76C4E" stroke-width="5" stroke-miterlimit="10" stroke-linecap="round" stroke-linejoin="round"/>
<path d="M1346.57 283.641C1346.57 295.271 1325.84 293.248 1325.84 308.081" stroke="#B76C4E" stroke-width="5" stroke-miterlimit="10" stroke-linecap="round" stroke-linejoin="round"/>
<path d="M1346.57 332.69C1346.57 321.059 1325.84 323.082 1325.84 308.249" stroke="#B76C4E" stroke-width="5" stroke-miterlimit="10" stroke-linecap="round" stroke-linejoin="round"/>
<path d="M1346.57 283.641C1346.57 272.01 1325.84 274.033 1325.84 259.2" stroke="#B76C4E" stroke-width="5" stroke-miterlimit="10" stroke-linecap="round" stroke-linejoin="round"/>
<path d="M799.748 742.105C799.748 753.735 779.016 751.713 779.016 766.545" stroke="#B76C4E" stroke-width="5" stroke-miterlimit="10" stroke-linecap="round" stroke-linejoin="round"/>
<path d="M799.748 693.225C799.748 704.855 779.016 702.832 779.016 717.665" stroke="#B76C4E" stroke-width="5" stroke-miterlimit="10" stroke-linecap="round" stroke-linejoin="round"/>
<path d="M799.748 742.105C799.748 730.475 779.016 732.497 779.016 717.665" stroke="#B76C4E" stroke-width="5" stroke-miterlimit="10" stroke-linecap="round" stroke-linejoin="round"/>
<path d="M799.747 693.225C799.747 681.594 779.015 683.617 779.015 668.784" stroke="#B76C4E" stroke-width="5" stroke-miterlimit="10" stroke-linecap="round" stroke-linejoin="round"/>
<path d="M1753.8 742.105C1753.8 753.735 1733.06 751.713 1733.06 766.545" stroke="#B76C4E" stroke-width="5" stroke-miterlimit="10" stroke-linecap="round" stroke-linejoin="round"/>
<path d="M1753.8 693.225C1753.8 704.855 1733.06 702.832 1733.06 717.665" stroke="#B76C4E" stroke-width="5" stroke-miterlimit="10" stroke-linecap="round" stroke-linejoin="round"/>
<path d="M1753.8 742.105C1753.8 730.475 1733.06 732.497 1733.06 717.665" stroke="#B76C4E" stroke-width="5" stroke-miterlimit="10" stroke-linecap="round" stroke-linejoin="round"/>
<path d="M1753.8 693.225C1753.8 681.594 1733.06 683.617 1733.06 668.784" stroke="#B76C4E" stroke-width="5" stroke-miterlimit="10" stroke-linecap="round" stroke-linejoin="round"/>
<path d="M294.427 780.872C294.427 792.502 273.695 790.48 273.695 805.312" stroke="#B76C4E" stroke-width="5" stroke-miterlimit="10" stroke-linecap="round" stroke-linejoin="round"/>
<path d="M294.427 731.823C294.427 743.453 273.695 741.431 273.695 756.263" stroke="#B76C4E" stroke-width="5" stroke-miterlimit="10" stroke-linecap="round" stroke-linejoin="round"/>
<path d="M294.427 780.872C294.427 769.242 273.695 771.265 273.695 756.432" stroke="#B76C4E" stroke-width="5" stroke-miterlimit="10" stroke-linecap="round" stroke-linejoin="round"/>
<path d="M294.427 731.823C294.427 720.193 273.695 722.216 273.695 707.383" stroke="#B76C4E" stroke-width="5" stroke-miterlimit="10" stroke-linecap="round" stroke-linejoin="round"/>
<path d="M1248.48 780.872C1248.48 792.502 1227.74 790.48 1227.74 805.312" stroke="#B76C4E" stroke-width="5" stroke-miterlimit="10" stroke-linecap="round" stroke-linejoin="round"/>
<path d="M1248.48 731.823C1248.48 743.453 1227.74 741.431 1227.74 756.263" stroke="#B76C4E" stroke-width="5" stroke-miterlimit="10" stroke-linecap="round" stroke-linejoin="round"/>
<path d="M1248.48 780.872C1248.48 769.242 1227.74 771.265 1227.74 756.432" stroke="#B76C4E" stroke-width="5" stroke-miterlimit="10" stroke-linecap="round" stroke-linejoin="round"/>
<path d="M1248.48 731.823C1248.48 720.193 1227.74 722.216 1227.74 707.383" stroke="#B76C4E" stroke-width="5" stroke-miterlimit="10" stroke-linecap="round" stroke-linejoin="round"/>
<path d="M596.932 603.195H657.473" stroke="#B76C4E" stroke-width="5" stroke-miterlimit="10" stroke-linecap="round" stroke-linejoin="round"/>
<path d="M1550.98 603.195H1611.52" stroke="#B76C4E" stroke-width="5" stroke-miterlimit="10" stroke-linecap="round" stroke-linejoin="round"/>
<path d="M3 427.833H63.5414" stroke="#B76C4E" stroke-width="5" stroke-miterlimit="10" stroke-linecap="round" stroke-linejoin="round"/>
<path d="M957.049 427.833H1017.59" stroke="#B76C4E" stroke-width="5" stroke-miterlimit="10" stroke-linecap="round" stroke-linejoin="round"/>
<path d="M602.151 147.047H662.692" stroke="#B76C4E" stroke-width="5" stroke-miterlimit="10" stroke-linecap="round" stroke-linejoin="round"/>
<path d="M1556.2 147.047H1616.74" stroke="#B76C4E" stroke-width="5" stroke-miterlimit="10" stroke-linecap="round" stroke-linejoin="round"/>
<path d="M244.122 912.165H304.663" stroke="#B76C4E" stroke-width="5" stroke-miterlimit="10" stroke-linecap="round" stroke-linejoin="round"/>
<path d="M1198.17 912.165H1258.71" stroke="#B76C4E" stroke-width="5" stroke-miterlimit="10" stroke-linecap="round" stroke-linejoin="round"/>
<path d="M399.65 795.257L442.447 752.46" stroke="#B76C4E" stroke-width="5" stroke-miterlimit="10" stroke-linecap="round" stroke-linejoin="round"/>
<path d="M1353.7 795.257L1396.5 752.46" stroke="#B76C4E" stroke-width="5" stroke-miterlimit="10" stroke-linecap="round" stroke-linejoin="round"/>
<path d="M45.7965 53.1033L88.593 10.3068" stroke="#B76C4E" stroke-width="5" stroke-miterlimit="10" stroke-linecap="round" stroke-linejoin="round"/>
<path d="M999.845 53.1033L1042.64 10.3068" stroke="#B76C4E" stroke-width="5" stroke-miterlimit="10" stroke-linecap="round" stroke-linejoin="round"/>
<path d="M870.412 491.506L913.208 448.71" stroke="#B76C4E" stroke-width="5" stroke-miterlimit="10" stroke-linecap="round" stroke-linejoin="round"/>
<path d="M1824.46 491.506L1867.26 448.71" stroke="#B76C4E" stroke-width="5" stroke-miterlimit="10" stroke-linecap="round" stroke-linejoin="round"/>
<g opacity="0.3">
<path opacity="0.3" d="M1515.8 251.11L1498.1 220.433L1480.4 251.11L1462.7 281.787H1498.1L1533.5 281.618L1515.8 251.11Z" stroke="#B76C4E" stroke-miterlimit="10"/>
<path opacity="0.3" d="M1457.14 625.298L1439.45 594.621L1421.92 625.298L1404.22 655.974H1439.61L1474.84 655.806L1457.14 625.298Z" stroke="#B76C4E" stroke-miterlimit="10"/>
<path opacity="0.3" d="M1660.08 740.251L1642.38 709.574L1624.69 740.251L1606.99 770.759H1642.38H1677.78L1660.08 740.251Z" stroke="#B76C4E" stroke-miterlimit="10"/>
<path opacity="0.3" d="M1776.72 505.12L1785.82 471.072L1751.77 480.174L1717.56 489.444L1742.67 514.39L1767.62 539.336L1776.72 505.12Z" stroke="#B76C4E" stroke-miterlimit="10"/>
<path opacity="0.3" d="M1195.38 108.514L1204.48 74.4664L1170.43 83.5683L1136.22 92.8387L1161.16 117.785L1186.28 142.73L1195.38 108.514Z" stroke="#B76C4E" stroke-miterlimit="10"/>
<path opacity="0.3" d="M1171.11 846.776L1180.21 812.56L1146.16 821.662L1111.94 830.932L1137.06 855.878L1162.01 880.824L1171.11 846.776Z" stroke="#B76C4E" stroke-miterlimit="10"/>
<path opacity="0.3" d="M1812.62 146.776L1843.13 129.078L1812.62 111.38L1781.94 93.6816V129.078V164.474L1812.62 146.776Z" stroke="#B76C4E" stroke-miterlimit="10"/>
<path opacity="0.3" d="M1170.43 499.894L1200.94 482.196L1170.27 464.667L1139.76 446.969V482.365V517.592L1170.43 499.894Z" stroke="#B76C4E" stroke-miterlimit="10"/>
<path opacity="0.3" d="M1575.47 442.081C1575.47 456.913 1563.5 468.881 1548.67 468.881C1533.83 468.881 1521.87 456.913 1521.87 442.081C1521.87 427.248 1533.83 415.281 1548.67 415.281C1563.5 415.281 1575.47 427.248 1575.47 442.081Z" stroke="#B76C4E" stroke-miterlimit="10"/>
<path opacity="0.3" d="M1439.95 142.731C1439.95 157.563 1427.98 169.531 1413.15 169.531C1398.32 169.531 1386.35 157.563 1386.35 142.731C1386.35 127.898 1398.32 115.931 1413.15 115.931C1427.98 115.931 1439.95 127.898 1439.95 142.731Z" stroke="#B76C4E" stroke-miterlimit="10"/>
<path opacity="0.3" d="M1457.14 934.424C1457.14 949.256 1445.18 961.224 1430.34 961.224C1415.51 961.224 1403.54 949.256 1403.54 934.424C1403.54 919.591 1415.51 907.624 1430.34 907.624C1445.01 907.455 1457.14 919.591 1457.14 934.424Z" stroke="#B76C4E" stroke-miterlimit="10"/>
<path opacity="0.3" d="M1528.78 894.308C1528.78 879.476 1540.75 867.508 1555.58 867.508C1570.41 867.508 1582.38 879.476 1582.38 894.308" stroke="#B76C4E" stroke-miterlimit="10"/>
<path opacity="0.3" d="M1314.72 482.365C1314.72 467.532 1326.68 455.565 1341.52 455.565C1356.35 455.565 1368.32 467.532 1368.32 482.365" stroke="#B76C4E" stroke-miterlimit="10"/>
<path opacity="0.3" d="M1032.56 264.594C1032.56 249.762 1044.53 237.794 1059.19 237.794C1073.85 237.794 1085.82 249.762 1085.82 264.594" stroke="#B76C4E" stroke-miterlimit="10"/>
<path opacity="0.3" d="M1708.62 308.418C1693.79 308.418 1681.82 296.451 1681.82 281.787C1681.82 267.123 1693.79 255.155 1708.62 255.155" stroke="#B76C4E" stroke-miterlimit="10"/>
<path opacity="0.3" d="M1062.73 934.255C1047.89 934.255 1035.93 922.288 1035.93 907.624C1035.93 892.96 1047.89 880.993 1062.73 880.993" stroke="#B76C4E" stroke-miterlimit="10"/>
<path opacity="0.3" d="M1350.62 81.2087C1335.79 81.2087 1323.82 69.2414 1323.82 54.5773C1323.82 39.9132 1335.79 27.9459 1350.62 27.9459" stroke="#B76C4E" stroke-miterlimit="10"/>
<path opacity="0.3" d="M1076.21 652.098C1076.21 666.93 1064.25 678.898 1049.41 678.898C1034.58 678.898 1022.61 666.93 1022.61 652.098C1022.61 637.265 1034.58 625.298 1049.41 625.298C1064.25 625.298 1076.21 637.265 1076.21 652.098Z" stroke="#B76C4E" stroke-miterlimit="10"/>
<path opacity="0.3" d="M1903.3 682.774C1903.3 697.607 1891.34 709.574 1876.5 709.574C1861.67 709.574 1849.7 697.607 1849.7 682.774C1849.7 667.942 1861.67 655.974 1876.5 655.974C1891.34 655.974 1903.3 667.942 1903.3 682.774Z" stroke="#B76C4E" stroke-miterlimit="10"/>
<path opacity="0.3" d="M1882.57 254.987H1829.14V308.418H1882.57V254.987Z" stroke="#B76C4E" stroke-miterlimit="10"/>
<path opacity="0.3" d="M1279.32 281.787H1225.89V335.218H1279.32V281.787Z" stroke="#B76C4E" stroke-miterlimit="10"/>
<path opacity="0.3" d="M1276.62 622.432H1223.19V675.864H1276.62V622.432Z" stroke="#B76C4E" stroke-miterlimit="10"/>
<path opacity="0.3" d="M1882.57 880.824H1829.14V934.255H1882.57V880.824Z" stroke="#B76C4E" stroke-miterlimit="10"/>
<path opacity="0.3" d="M1661.26 27.7773H1607.83V81.2086H1661.26V27.7773Z" stroke="#B76C4E" stroke-miterlimit="10"/>
<g opacity="0.3">
<path opacity="0.3" d="M1531.14 570.349C1519.51 570.349 1521.53 549.617 1506.7 549.617" stroke="#B76C4E" stroke-miterlimit="10"/>
<path opacity="0.3" d="M1580.19 570.349C1568.56 570.349 1570.58 549.617 1555.75 549.617" stroke="#B76C4E" stroke-miterlimit="10"/>
<path opacity="0.3" d="M1531.14 570.349C1542.77 570.349 1540.75 549.617 1555.58 549.617" stroke="#B76C4E" stroke-miterlimit="10"/>
<path opacity="0.3" d="M1580.19 570.349C1591.82 570.349 1589.79 549.617 1604.63 549.617" stroke="#B76C4E" stroke-miterlimit="10"/>
</g>
<g opacity="0.3">
<path opacity="0.3" d="M1670.7 954.987C1659.07 954.987 1661.09 934.255 1646.26 934.255" stroke="#B76C4E" stroke-miterlimit="10"/>
<path opacity="0.3" d="M1719.75 954.987C1708.12 954.987 1710.14 934.255 1695.31 934.255" stroke="#B76C4E" stroke-miterlimit="10"/>
<path opacity="0.3" d="M1670.7 954.987C1682.33 954.987 1680.31 934.255 1695.14 934.255" stroke="#B76C4E" stroke-miterlimit="10"/>
<path opacity="0.3" d="M1719.75 954.987C1731.38 954.987 1729.35 934.255 1744.19 934.255" stroke="#B76C4E" stroke-miterlimit="10"/>
</g>
<g opacity="0.3">
<path opacity="0.3" d="M1737.62 400.448C1725.99 400.448 1728.01 379.716 1713.18 379.716" stroke="#B76C4E" stroke-miterlimit="10"/>
<path opacity="0.3" d="M1786.5 400.448C1774.86 400.448 1776.89 379.716 1762.05 379.716" stroke="#B76C4E" stroke-miterlimit="10"/>
<path opacity="0.3" d="M1737.61 400.448C1749.25 400.448 1747.22 379.716 1762.06 379.716" stroke="#B76C4E" stroke-miterlimit="10"/>
<path opacity="0.3" d="M1786.49 400.448C1798.13 400.448 1796.1 379.716 1810.94 379.716" stroke="#B76C4E" stroke-miterlimit="10"/>
</g>
<g opacity="0.3">
<path opacity="0.3" d="M1056.15 375.502C1044.52 375.502 1046.55 354.77 1031.71 354.77" stroke="#B76C4E" stroke-miterlimit="10"/>
<path opacity="0.3" d="M1105.2 375.502C1093.57 375.502 1095.59 354.77 1080.76 354.77" stroke="#B76C4E" stroke-miterlimit="10"/>
<path opacity="0.3" d="M1056.15 375.502C1067.78 375.502 1065.76 354.77 1080.59 354.77" stroke="#B76C4E" stroke-miterlimit="10"/>
<path opacity="0.3" d="M1105.2 375.502C1116.83 375.502 1114.81 354.77 1129.64 354.77" stroke="#B76C4E" stroke-miterlimit="10"/>
</g>
<g opacity="0.3">
<path opacity="0.3" d="M1535.18 98.9066C1535.18 110.537 1514.45 108.514 1514.45 123.347" stroke="#B76C4E" stroke-miterlimit="10"/>
<path opacity="0.3" d="M1535.18 49.8578C1535.18 61.4879 1514.45 59.4653 1514.45 74.298" stroke="#B76C4E" stroke-miterlimit="10"/>
<path opacity="0.3" d="M1535.18 98.9066C1535.18 87.2765 1514.45 89.2991 1514.45 74.4664" stroke="#B76C4E" stroke-miterlimit="10"/>
<path opacity="0.3" d="M1535.18 49.8578C1535.18 38.2276 1514.45 40.2503 1514.45 25.4176" stroke="#B76C4E" stroke-miterlimit="10"/>
</g>
<g opacity="0.3">
<path opacity="0.3" d="M1385 355.276C1385 366.906 1364.27 364.883 1364.27 379.716" stroke="#B76C4E" stroke-miterlimit="10"/>
<path opacity="0.3" d="M1385 306.227C1385 317.857 1364.27 315.834 1364.27 330.667" stroke="#B76C4E" stroke-miterlimit="10"/>
<path opacity="0.3" d="M1385 355.276C1385 343.645 1364.27 345.668 1364.27 330.835" stroke="#B76C4E" stroke-miterlimit="10"/>
<path opacity="0.3" d="M1385 306.227C1385 294.597 1364.27 296.619 1364.27 281.787" stroke="#B76C4E" stroke-miterlimit="10"/>
</g>
<g opacity="0.3">
<path opacity="0.3" d="M1792.23 764.691C1792.23 776.321 1771.49 774.299 1771.49 789.131" stroke="#B76C4E" stroke-miterlimit="10"/>
<path opacity="0.3" d="M1792.23 715.642C1792.23 727.272 1771.49 725.25 1771.49 740.082" stroke="#B76C4E" stroke-miterlimit="10"/>
<path opacity="0.3" d="M1792.23 764.691C1792.23 753.061 1771.49 755.084 1771.49 740.251" stroke="#B76C4E" stroke-miterlimit="10"/>
<path opacity="0.3" d="M1792.23 715.642C1792.23 704.012 1771.49 706.035 1771.49 691.202" stroke="#B76C4E" stroke-miterlimit="10"/>
</g>
<g opacity="0.3">
<path opacity="0.3" d="M1286.9 803.29C1286.9 814.92 1266.17 812.897 1266.17 827.73" stroke="#B76C4E" stroke-miterlimit="10"/>
<path opacity="0.3" d="M1286.9 754.241C1286.9 765.871 1266.17 763.848 1266.17 778.681" stroke="#B76C4E" stroke-miterlimit="10"/>
<path opacity="0.3" d="M1286.9 803.29C1286.9 791.66 1266.17 793.682 1266.17 778.849" stroke="#B76C4E" stroke-miterlimit="10"/>
<path opacity="0.3" d="M1286.9 754.241C1286.9 742.611 1266.17 744.633 1266.17 729.801" stroke="#B76C4E" stroke-miterlimit="10"/>
</g>
<path opacity="0.3" d="M1589.79 625.298H1650.3" stroke="#B76C4E" stroke-miterlimit="10"/>
<path opacity="0.3" d="M995.476 450.508H1055.99" stroke="#B76C4E" stroke-miterlimit="10"/>
<path opacity="0.3" d="M1594.35 169.53H1654.86" stroke="#B76C4E" stroke-miterlimit="10"/>
<path opacity="0.3" d="M1832.68 33.171H1893.19" stroke="#B76C4E" stroke-miterlimit="10"/>
<path opacity="0.3" d="M1236.51 934.255H1297.02" stroke="#B76C4E" stroke-miterlimit="10"/>
<path opacity="0.3" d="M1391.74 817.448L1434.56 774.636" stroke="#B76C4E" stroke-miterlimit="10"/>
<path opacity="0.3" d="M1037.95 75.8149L1080.59 33.171" stroke="#B76C4E" stroke-miterlimit="10"/>
<path opacity="0.3" d="M1862.85 514.053L1905.66 471.409" stroke="#B76C4E" stroke-miterlimit="10"/>
</g>
<path d="M553.413 745.652C548.562 748.657 542.038 747.322 539.027 742.313C536.015 737.471 537.354 730.96 542.372 727.954C547.223 724.949 553.747 726.285 556.759 731.293C559.77 735.968 558.264 742.48 553.413 745.652Z" stroke="#B76C4E" stroke-width="5" stroke-miterlimit="10" stroke-linecap="round" stroke-linejoin="round"/>
<path d="M1507.46 745.652C1502.61 748.657 1496.09 747.322 1493.08 742.313C1490.06 737.471 1491.4 730.96 1496.42 727.954C1501.27 724.949 1507.8 726.285 1510.81 731.293C1513.82 735.968 1512.31 742.48 1507.46 745.652Z" stroke="#B76C4E" stroke-width="5" stroke-miterlimit="10" stroke-linecap="round" stroke-linejoin="round"/>
<path d="M469.908 455.471C465.056 458.476 458.532 457.141 455.521 452.132C452.51 447.29 453.848 440.779 458.867 437.773C463.718 434.768 470.242 436.104 473.253 441.112C476.264 445.954 474.759 452.466 469.908 455.471Z" stroke="#B76C4E" stroke-width="5" stroke-miterlimit="10" stroke-linecap="round" stroke-linejoin="round"/>
<path d="M1423.96 455.471C1419.1 458.476 1412.58 457.141 1409.57 452.132C1406.56 447.29 1407.9 440.779 1412.92 437.773C1417.77 434.768 1424.29 436.104 1427.3 441.112C1430.31 445.954 1428.81 452.466 1423.96 455.471Z" stroke="#B76C4E" stroke-width="5" stroke-miterlimit="10" stroke-linecap="round" stroke-linejoin="round"/>
<path d="M89.7133 545.16C84.6196 548.315 77.7694 546.913 74.6077 541.654C71.4461 536.57 72.8513 529.733 78.1207 526.577C83.2144 523.422 90.0646 524.824 93.2263 530.083C96.3879 535.167 94.8071 541.829 89.7133 545.16Z" stroke="#B76C4E" stroke-width="5" stroke-miterlimit="10" stroke-linecap="round" stroke-linejoin="round"/>
<path d="M1043.76 545.16C1038.67 548.315 1031.82 546.913 1028.66 541.654C1025.49 536.57 1026.9 529.733 1032.17 526.577C1037.26 523.422 1044.11 524.824 1047.27 530.083C1050.44 535.167 1048.86 541.829 1043.76 545.16Z" stroke="#B76C4E" stroke-width="5" stroke-miterlimit="10" stroke-linecap="round" stroke-linejoin="round"/>
<path d="M197.471 212.262C192.62 215.267 186.096 213.931 183.085 208.922C180.074 204.081 181.412 197.569 186.431 194.564C191.282 191.559 197.806 192.894 200.817 197.903C203.828 202.745 202.323 209.089 197.471 212.262Z" stroke="#B76C4E" stroke-width="5" stroke-miterlimit="10" stroke-linecap="round" stroke-linejoin="round"/>
<path d="M1151.52 212.262C1146.67 215.267 1140.14 213.931 1137.13 208.922C1134.12 204.081 1135.46 197.569 1140.48 194.564C1145.33 191.559 1151.85 192.894 1154.87 197.903C1157.88 202.745 1156.37 209.089 1151.52 212.262Z" stroke="#B76C4E" stroke-width="5" stroke-miterlimit="10" stroke-linecap="round" stroke-linejoin="round"/>
<path d="M778.877 207.043C774.026 210.048 767.502 208.712 764.491 203.703C761.48 198.862 762.818 192.35 767.837 189.345C772.688 186.34 779.212 187.675 782.223 192.684C785.234 197.526 783.729 203.87 778.877 207.043Z" stroke="#B76C4E" stroke-width="5" stroke-miterlimit="10" stroke-linecap="round" stroke-linejoin="round"/>
<path d="M1732.93 207.043C1728.07 210.048 1721.55 208.712 1718.54 203.703C1715.53 198.862 1716.87 192.35 1721.89 189.345C1726.74 186.34 1733.26 187.675 1736.27 192.684C1739.28 197.526 1737.78 203.87 1732.93 207.043Z" stroke="#B76C4E" stroke-width="5" stroke-miterlimit="10" stroke-linecap="round" stroke-linejoin="round"/>
<path d="M928.056 583.781C923.231 586.936 916.743 585.534 913.748 580.275C910.753 575.191 912.084 568.354 917.076 565.198C921.9 562.043 928.389 563.445 931.383 568.704C934.544 573.788 933.047 580.45 928.056 583.781Z" stroke="#B76C4E" stroke-width="5" stroke-miterlimit="10" stroke-linecap="round" stroke-linejoin="round"/>
<path d="M1882.1 583.781C1877.28 586.936 1870.79 585.534 1867.8 580.275C1864.8 575.191 1866.13 568.354 1871.12 565.198C1875.95 562.043 1882.44 563.445 1885.43 568.704C1888.59 573.788 1887.1 580.45 1882.1 583.781Z" stroke="#B76C4E" stroke-width="5" stroke-miterlimit="10" stroke-linecap="round" stroke-linejoin="round"/>
</g>
</svg>
