<svg width="114" height="18" viewBox="0 0 114 18" fill="none" xmlns="http://www.w3.org/2000/svg">
<path d="M15.9626 6.20685L11.4995 5.55822L9.50436 1.51349C9.44987 1.40275 9.36022 1.3131 9.24948 1.25861C8.97174 1.1215 8.63424 1.23575 8.49537 1.51349L6.50026 5.55822L2.03717 6.20685C1.91412 6.22443 1.80162 6.28243 1.71549 6.37032C1.61136 6.47735 1.55398 6.62134 1.55596 6.77065C1.55794 6.91996 1.61911 7.06238 1.72604 7.16661L4.95514 10.3149L4.19225 14.7604C4.17436 14.8638 4.1858 14.9701 4.22528 15.0674C4.26476 15.1646 4.3307 15.2488 4.41561 15.3105C4.50053 15.3722 4.60102 15.4088 4.7057 15.4163C4.81039 15.4238 4.91507 15.4017 5.00787 15.3527L8.99987 13.2539L12.9919 15.3527C13.1008 15.4108 13.2274 15.4301 13.3487 15.409C13.6546 15.3563 13.8602 15.0662 13.8075 14.7604L13.0446 10.3149L16.2737 7.16661C16.3616 7.08048 16.4196 6.96798 16.4372 6.84493C16.4846 6.53732 16.2702 6.25255 15.9626 6.20685Z" fill="#F3CE5E"/>
<path d="M39.9626 6.20685L35.4995 5.55822L33.5044 1.51349C33.4499 1.40275 33.3602 1.3131 33.2495 1.25861C32.9717 1.1215 32.6342 1.23575 32.4954 1.51349L30.5003 5.55822L26.0372 6.20685C25.9141 6.22443 25.8016 6.28243 25.7155 6.37032C25.6114 6.47735 25.554 6.62134 25.556 6.77065C25.5579 6.91996 25.6191 7.06238 25.726 7.16661L28.9551 10.3149L28.1922 14.7604C28.1744 14.8638 28.1858 14.9701 28.2253 15.0674C28.2648 15.1646 28.3307 15.2488 28.4156 15.3105C28.5005 15.3722 28.601 15.4088 28.7057 15.4163C28.8104 15.4238 28.9151 15.4017 29.0079 15.3527L32.9999 13.2539L36.9919 15.3527C37.1008 15.4108 37.2274 15.4301 37.3487 15.409C37.6546 15.3563 37.8602 15.0662 37.8075 14.7604L37.0446 10.3149L40.2737 7.16661C40.3616 7.08048 40.4196 6.96798 40.4372 6.84493C40.4846 6.53732 40.2702 6.25255 39.9626 6.20685Z" fill="#F3CE5E"/>
<path d="M63.9626 6.20685L59.4995 5.55822L57.5044 1.51349C57.4499 1.40275 57.3602 1.3131 57.2495 1.25861C56.9717 1.1215 56.6342 1.23575 56.4954 1.51349L54.5003 5.55822L50.0372 6.20685C49.9141 6.22443 49.8016 6.28243 49.7155 6.37032C49.6114 6.47735 49.554 6.62134 49.556 6.77065C49.5579 6.91996 49.6191 7.06238 49.726 7.16661L52.9551 10.3149L52.1922 14.7604C52.1744 14.8638 52.1858 14.9701 52.2253 15.0674C52.2648 15.1646 52.3307 15.2488 52.4156 15.3105C52.5005 15.3722 52.601 15.4088 52.7057 15.4163C52.8104 15.4238 52.9151 15.4017 53.0079 15.3527L56.9999 13.2539L60.9919 15.3527C61.1008 15.4108 61.2274 15.4301 61.3487 15.409C61.6546 15.3563 61.8602 15.0662 61.8075 14.7604L61.0446 10.3149L64.2737 7.16661C64.3616 7.08048 64.4196 6.96798 64.4372 6.84493C64.4846 6.53732 64.2702 6.25255 63.9626 6.20685Z" fill="#F3CE5E"/>
<path d="M87.9626 6.20685L83.4995 5.55822L81.5044 1.51349C81.4499 1.40275 81.3602 1.3131 81.2495 1.25861C80.9717 1.1215 80.6342 1.23575 80.4954 1.51349L78.5003 5.55822L74.0372 6.20685C73.9141 6.22443 73.8016 6.28243 73.7155 6.37032C73.6114 6.47735 73.554 6.62134 73.556 6.77065C73.5579 6.91996 73.6191 7.06238 73.726 7.16661L76.9551 10.3149L76.1922 14.7604C76.1744 14.8638 76.1858 14.9701 76.2253 15.0674C76.2648 15.1646 76.3307 15.2488 76.4156 15.3105C76.5005 15.3722 76.601 15.4088 76.7057 15.4163C76.8104 15.4238 76.9151 15.4017 77.0079 15.3527L80.9999 13.2539L84.9919 15.3527C85.1008 15.4108 85.2274 15.4301 85.3487 15.409C85.6546 15.3563 85.8602 15.0662 85.8075 14.7604L85.0446 10.3149L88.2737 7.16661C88.3616 7.08048 88.4196 6.96798 88.4372 6.84493C88.4846 6.53732 88.2702 6.25255 87.9626 6.20685Z" fill="#F3CE5E"/>
<path d="M111.963 6.20685L107.499 5.55822L105.504 1.51349C105.45 1.40275 105.36 1.3131 105.249 1.25861C104.972 1.1215 104.634 1.23575 104.495 1.51349L102.5 5.55822L98.0372 6.20685C97.9141 6.22443 97.8016 6.28243 97.7155 6.37032C97.6114 6.47735 97.554 6.62134 97.556 6.77065C97.5579 6.91996 97.6191 7.06238 97.726 7.16661L100.955 10.3149L100.192 14.7604C100.174 14.8638 100.186 14.9701 100.225 15.0674C100.265 15.1646 100.331 15.2488 100.416 15.3105C100.501 15.3722 100.601 15.4088 100.706 15.4163C100.81 15.4238 100.915 15.4017 101.008 15.3527L105 13.2539L108.992 15.3527C109.101 15.4108 109.227 15.4301 109.349 15.409C109.655 15.3563 109.86 15.0662 109.807 14.7604L109.045 10.3149L112.274 7.16661C112.362 7.08048 112.42 6.96798 112.437 6.84493C112.485 6.53732 112.27 6.25255 111.963 6.20685Z" fill="#F3CE5E"/>
</svg>
